{"title":"Barneys Version [2010] LIMITED BRRip XviD - CODY","uid":6411662,"size":951921266,"categoryP":"video","categoryS":"movies","magnet":"?xt=urn:btih:60807122d36fada1267866d787dae19b1c73ffde&amp;dn=Barneys+Version+%5B2010%5D+LIMITED+BRRip+XviD+-+CODY&amp;tr=udp%3A%2F%2Ftracker.openbittorrent.com%3A80&amp;tr=udp%3A%2F%2Fopen.demonii.com%3A1337&amp;tr=udp%3A%2F%2Ftracker.coppersurfer.tk%3A6969&amp;tr=udp%3A%2F%2Fexodus.desync.com%3A6969","seeders":4,"leechers":1,"uploader":"CODYBOSS1969","files":5,"time":1306008173,"description":"General\nComplete name                    : Barneys Version [2010] LIMITED BRRip XviD - CODY.avi\nFormat                           : AVI\nFormat/Info                      : Audio Video Interleave\nFile size                        : 907 MiB\nDuration                         : 2h 14mn\nOverall bit rate                 : 945 Kbps\nWriting application              : VirtualDubMod 1.5.10.2 (build 2540/release)\nWriting library                  : VirtualDubMod build 2540/release\n\nVideo\nID                               : 0\nFormat                           : MPEG-4 Visual\nFormat profile                   : Advanced Simple@L5\nFormat settings, BVOP            : 2\nFormat settings, QPel            : No\nFormat settings, GMC             : No warppoints\nFormat settings, Matrix          : Default (H.263)\nMuxing mode                      : Packed bitstream\nCodec ID                         : XVID\nCodec ID/Hint                    : XviD\nDuration                         : 2h 14mn\nBit rate                         : 807 Kbps\nWidth                            : 720 pixels\nHeight                           : 304 pixels\nDisplay aspect ratio             : 2.35:1\nFrame rate                       : 23.976 fps\nColor space                      : YUV\nChroma subsampling               : 4:2:0\nBit depth                        : 8 bits\nScan type                        : Progressive\nCompression mode                 : Lossy\nBits/(Pixel*Frame)               : 0.154\nStream size                      : 776 MiB (85%)\nWriting library                  : XviD 1.2.0.dev47 (UTC 2006-11-01)\n\nAudio\nID                               : 1\nFormat                           : MPEG Audio\nFormat version                   : Version 1\nFormat profile                   : Layer 3\nCodec ID                         : 55\nCodec ID/Hint                    : MP3\nDuration                         : 2h 14mn\nBit rate mode                    : Constant\nBit rate                         : 128 Kbps\nChannel(s)                       : 2 channels\nSampling rate                    : 48.0 KHz\nCompression mode                 : Lossy\nStream size                      : 123 MiB (14%)\nAlignment                        : Aligned on interleaves\nInterleave, duration             : 42 ms (1.00 video frame)\nInterleave, preload duration     : 504 ms\nWriting library                  : LAME3.97 \nEncoding settings                : -m s -V 4 -q 2 -lowpass 17 -b 128\n\n\n\nIMDB link:                         &lt;a href=&quot; http://www.imdb.com/title/tt1423894/&quot; rel=&quot;nofollow&quot; target=&quot;_NEW&quot;&gt; http://www.imdb.com/title/tt1423894/&lt;/a&gt;\n\n\n\nSubtitles incuded                : English [.srt]\n\n\n\nPlease seed at least 1,5:1. This way this torrent has a chance to survive.\n\n\n\nThanks. Enjoy !!!\n\n","torrent":{"xt":"urn:btih:60807122d36fada1267866d787dae19b1c73ffde","amp;dn":"Barneys+Version+%5B2010%5D+LIMITED+BRRip+XviD+-+CODY","amp;tr":["udp%3A%2F%2Ftracker.openbittorrent.com%3A80","udp%3A%2F%2Fopen.demonii.com%3A1337","udp%3A%2F%2Ftracker.coppersurfer.tk%3A6969","udp%3A%2F%2Fexodus.desync.com%3A6969"],"infoHash":"60807122d36fada1267866d787dae19b1c73ffde","infoHashBuffer":{"type":"Buffer","data":[96,128,113,34,211,111,173,161,38,120,102,215,135,218,225,155,28,115,255,222]},"announce":[],"urlList":[]}}